<?xml version="1.0" encoding="iso-8859-1"?>
<!-- Uploaded to: SVG Repo, www.svgrepo.com, Generator: SVG Repo Mixer Tools -->
<svg version="1.1" id="Layer_1" xmlns="http://www.w3.org/2000/svg" xmlns:xlink="http://www.w3.org/1999/xlink" 
	 viewBox="0 0 512 512" xml:space="preserve">
<path style="fill:#FFFFFF;" d="M256,504C119.248,504,8,392.752,8,256S119.248,8,256,8s248,111.248,248,248S392.752,504,256,504z"/>
<path style="fill:#13B7E6;" d="M256,16c132.336,0,240,107.664,240,240S388.336,496,256,496S16,388.336,16,256S123.664,16,256,16
	 M256,0C114.616,0,0,114.616,0,256s114.616,256,256,256s256-114.616,256-256S397.384,0,256,0L256,0z"/>
<polygon points="169.472,345.344 256,429.984 342.528,345.344 305.392,345.344 305.392,254.184 206.608,254.184 206.608,345.344 "/>
<g>
	<rect x="117.328" y="132.336" style="fill:#FF583E;" width="277.344" height="16"/>
	<rect x="148.104" y="167.68" style="fill:#FF583E;" width="215.8" height="16"/>
</g>
</svg>